<mxfile host="Electron" modified="2024-10-10T08:22:24.859Z" agent="Mozilla/5.0 (Windows NT 10.0; Win64; x64) AppleWebKit/537.36 (KHTML, like Gecko) draw.io/21.7.5 Chrome/114.0.5735.289 Electron/25.8.1 Safari/537.36" etag="RD2xHYlhZG5jN4278-Rd" version="21.7.5" type="device">
  <diagram name="PÃ¡gina-1" id="5xp2Ju3EjX2Z9KgNPN83">
    <mxGraphModel dx="1017" dy="1181" grid="1" gridSize="10" guides="1" tooltips="1" connect="1" arrows="1" fold="1" page="1" pageScale="1" pageWidth="827" pageHeight="1169" math="0" shadow="0">
      <root>
        <mxCell id="0" />
        <mxCell id="1" parent="0" />
        <mxCell id="Y6AdTtyQPDnQfDefX7vD-1" value="Vendedor" style="rounded=0;whiteSpace=wrap;html=1;" vertex="1" parent="1">
          <mxGeometry x="390" y="200" width="120" height="60" as="geometry" />
        </mxCell>
        <mxCell id="Y6AdTtyQPDnQfDefX7vD-2" value="Capta" style="rhombus;whiteSpace=wrap;html=1;" vertex="1" parent="1">
          <mxGeometry x="540" y="80" width="80" height="80" as="geometry" />
        </mxCell>
        <mxCell id="Y6AdTtyQPDnQfDefX7vD-4" value="#codigo_vendedor" style="ellipse;whiteSpace=wrap;html=1;" vertex="1" parent="1">
          <mxGeometry x="395" y="50" width="110" height="60" as="geometry" />
        </mxCell>
        <mxCell id="Y6AdTtyQPDnQfDefX7vD-6" value="Tendra a cargo" style="rhombus;whiteSpace=wrap;html=1;" vertex="1" parent="1">
          <mxGeometry x="280" y="80" width="80" height="80" as="geometry" />
        </mxCell>
        <mxCell id="Y6AdTtyQPDnQfDefX7vD-7" value="" style="endArrow=none;html=1;rounded=0;exitX=0;exitY=0.5;exitDx=0;exitDy=0;entryX=0.5;entryY=1;entryDx=0;entryDy=0;" edge="1" parent="1" source="Y6AdTtyQPDnQfDefX7vD-1" target="Y6AdTtyQPDnQfDefX7vD-6">
          <mxGeometry width="50" height="50" relative="1" as="geometry">
            <mxPoint x="380" y="150" as="sourcePoint" />
            <mxPoint x="430" y="100" as="targetPoint" />
            <Array as="points">
              <mxPoint x="320" y="230" />
            </Array>
          </mxGeometry>
        </mxCell>
        <mxCell id="Y6AdTtyQPDnQfDefX7vD-8" value="" style="endArrow=none;html=1;rounded=0;exitX=1;exitY=0.5;exitDx=0;exitDy=0;entryX=0.141;entryY=-0.006;entryDx=0;entryDy=0;entryPerimeter=0;" edge="1" parent="1" source="Y6AdTtyQPDnQfDefX7vD-6" target="Y6AdTtyQPDnQfDefX7vD-1">
          <mxGeometry width="50" height="50" relative="1" as="geometry">
            <mxPoint x="380" y="150" as="sourcePoint" />
            <mxPoint x="430" y="100" as="targetPoint" />
            <Array as="points">
              <mxPoint x="407" y="120" />
            </Array>
          </mxGeometry>
        </mxCell>
        <mxCell id="Y6AdTtyQPDnQfDefX7vD-9" value="" style="endArrow=none;html=1;rounded=0;exitX=0.5;exitY=1;exitDx=0;exitDy=0;entryX=0.5;entryY=0;entryDx=0;entryDy=0;" edge="1" parent="1" source="Y6AdTtyQPDnQfDefX7vD-4" target="Y6AdTtyQPDnQfDefX7vD-1">
          <mxGeometry width="50" height="50" relative="1" as="geometry">
            <mxPoint x="380" y="150" as="sourcePoint" />
            <mxPoint x="430" y="100" as="targetPoint" />
          </mxGeometry>
        </mxCell>
        <mxCell id="Y6AdTtyQPDnQfDefX7vD-11" value="" style="endArrow=none;html=1;rounded=0;exitX=1.009;exitY=0.397;exitDx=0;exitDy=0;exitPerimeter=0;entryX=0.5;entryY=1;entryDx=0;entryDy=0;" edge="1" parent="1" source="Y6AdTtyQPDnQfDefX7vD-1" target="Y6AdTtyQPDnQfDefX7vD-2">
          <mxGeometry width="50" height="50" relative="1" as="geometry">
            <mxPoint x="380" y="150" as="sourcePoint" />
            <mxPoint x="430" y="100" as="targetPoint" />
            <Array as="points">
              <mxPoint x="580" y="224" />
            </Array>
          </mxGeometry>
        </mxCell>
        <mxCell id="Y6AdTtyQPDnQfDefX7vD-12" value="" style="endArrow=none;html=1;rounded=0;exitX=0.825;exitY=-0.04;exitDx=0;exitDy=0;exitPerimeter=0;entryX=0;entryY=0.5;entryDx=0;entryDy=0;" edge="1" parent="1" source="Y6AdTtyQPDnQfDefX7vD-1" target="Y6AdTtyQPDnQfDefX7vD-2">
          <mxGeometry width="50" height="50" relative="1" as="geometry">
            <mxPoint x="380" y="150" as="sourcePoint" />
            <mxPoint x="430" y="100" as="targetPoint" />
            <Array as="points">
              <mxPoint x="490" y="120" />
            </Array>
          </mxGeometry>
        </mxCell>
        <mxCell id="Y6AdTtyQPDnQfDefX7vD-13" value="Trabaja" style="rhombus;whiteSpace=wrap;html=1;" vertex="1" parent="1">
          <mxGeometry x="410" y="300" width="80" height="80" as="geometry" />
        </mxCell>
        <mxCell id="Y6AdTtyQPDnQfDefX7vD-14" value="Empresa" style="rounded=0;whiteSpace=wrap;html=1;" vertex="1" parent="1">
          <mxGeometry x="395" y="420" width="120" height="60" as="geometry" />
        </mxCell>
        <mxCell id="Y6AdTtyQPDnQfDefX7vD-15" value="#codigo" style="ellipse;whiteSpace=wrap;html=1;" vertex="1" parent="1">
          <mxGeometry x="220" y="380" width="70" height="40" as="geometry" />
        </mxCell>
        <mxCell id="Y6AdTtyQPDnQfDefX7vD-17" value="Tiene sede" style="rhombus;whiteSpace=wrap;html=1;" vertex="1" parent="1">
          <mxGeometry x="250" y="545" width="80" height="80" as="geometry" />
        </mxCell>
        <mxCell id="Y6AdTtyQPDnQfDefX7vD-18" value="Pais" style="rounded=0;whiteSpace=wrap;html=1;" vertex="1" parent="1">
          <mxGeometry x="395" y="680" width="120" height="60" as="geometry" />
        </mxCell>
        <mxCell id="Y6AdTtyQPDnQfDefX7vD-19" value="" style="endArrow=none;html=1;rounded=0;entryX=0.5;entryY=1;entryDx=0;entryDy=0;" edge="1" parent="1" target="Y6AdTtyQPDnQfDefX7vD-13">
          <mxGeometry width="50" height="50" relative="1" as="geometry">
            <mxPoint x="450" y="420" as="sourcePoint" />
            <mxPoint x="500" y="410" as="targetPoint" />
          </mxGeometry>
        </mxCell>
        <mxCell id="Y6AdTtyQPDnQfDefX7vD-20" value="" style="endArrow=none;html=1;rounded=0;entryX=0.5;entryY=0;entryDx=0;entryDy=0;" edge="1" parent="1" source="Y6AdTtyQPDnQfDefX7vD-1" target="Y6AdTtyQPDnQfDefX7vD-13">
          <mxGeometry width="50" height="50" relative="1" as="geometry">
            <mxPoint x="450" y="460" as="sourcePoint" />
            <mxPoint x="500" y="410" as="targetPoint" />
          </mxGeometry>
        </mxCell>
        <mxCell id="Y6AdTtyQPDnQfDefX7vD-21" value="" style="endArrow=none;html=1;rounded=0;exitX=0;exitY=0.25;exitDx=0;exitDy=0;entryX=1;entryY=1;entryDx=0;entryDy=0;" edge="1" parent="1" source="Y6AdTtyQPDnQfDefX7vD-14" target="Y6AdTtyQPDnQfDefX7vD-15">
          <mxGeometry width="50" height="50" relative="1" as="geometry">
            <mxPoint x="450" y="460" as="sourcePoint" />
            <mxPoint x="500" y="410" as="targetPoint" />
          </mxGeometry>
        </mxCell>
        <mxCell id="Y6AdTtyQPDnQfDefX7vD-22" value="" style="endArrow=none;html=1;rounded=0;exitX=0.5;exitY=0;exitDx=0;exitDy=0;entryX=0.5;entryY=1;entryDx=0;entryDy=0;" edge="1" parent="1" source="Y6AdTtyQPDnQfDefX7vD-16" target="Y6AdTtyQPDnQfDefX7vD-14">
          <mxGeometry width="50" height="50" relative="1" as="geometry">
            <mxPoint x="450" y="550" as="sourcePoint" />
            <mxPoint x="500" y="500" as="targetPoint" />
          </mxGeometry>
        </mxCell>
        <mxCell id="Y6AdTtyQPDnQfDefX7vD-23" value="" style="endArrow=none;html=1;rounded=0;exitX=0.5;exitY=0;exitDx=0;exitDy=0;entryX=0.5;entryY=1;entryDx=0;entryDy=0;" edge="1" parent="1" source="Y6AdTtyQPDnQfDefX7vD-18" target="Y6AdTtyQPDnQfDefX7vD-16">
          <mxGeometry width="50" height="50" relative="1" as="geometry">
            <mxPoint x="455" y="680" as="sourcePoint" />
            <mxPoint x="455" y="480" as="targetPoint" />
          </mxGeometry>
        </mxCell>
        <mxCell id="Y6AdTtyQPDnQfDefX7vD-16" value="Actua" style="rhombus;whiteSpace=wrap;html=1;" vertex="1" parent="1">
          <mxGeometry x="414" y="545" width="80" height="80" as="geometry" />
        </mxCell>
        <mxCell id="Y6AdTtyQPDnQfDefX7vD-24" value="" style="endArrow=none;html=1;rounded=0;entryX=0;entryY=0.75;entryDx=0;entryDy=0;exitX=0.5;exitY=0;exitDx=0;exitDy=0;" edge="1" parent="1" source="Y6AdTtyQPDnQfDefX7vD-17" target="Y6AdTtyQPDnQfDefX7vD-14">
          <mxGeometry width="50" height="50" relative="1" as="geometry">
            <mxPoint x="450" y="550" as="sourcePoint" />
            <mxPoint x="500" y="500" as="targetPoint" />
            <Array as="points">
              <mxPoint x="290" y="465" />
            </Array>
          </mxGeometry>
        </mxCell>
        <mxCell id="Y6AdTtyQPDnQfDefX7vD-25" value="" style="endArrow=none;html=1;rounded=0;exitX=0.5;exitY=1;exitDx=0;exitDy=0;entryX=0;entryY=0.5;entryDx=0;entryDy=0;" edge="1" parent="1" source="Y6AdTtyQPDnQfDefX7vD-17" target="Y6AdTtyQPDnQfDefX7vD-18">
          <mxGeometry width="50" height="50" relative="1" as="geometry">
            <mxPoint x="450" y="550" as="sourcePoint" />
            <mxPoint x="500" y="500" as="targetPoint" />
            <Array as="points">
              <mxPoint x="290" y="710" />
            </Array>
          </mxGeometry>
        </mxCell>
        <mxCell id="Y6AdTtyQPDnQfDefX7vD-28" value="Areas" style="rounded=0;whiteSpace=wrap;html=1;" vertex="1" parent="1">
          <mxGeometry x="830" y="420" width="120" height="60" as="geometry" />
        </mxCell>
        <mxCell id="Y6AdTtyQPDnQfDefX7vD-29" value="Asesor" style="rounded=0;whiteSpace=wrap;html=1;" vertex="1" parent="1">
          <mxGeometry x="830" y="680" width="120" height="60" as="geometry" />
        </mxCell>
        <mxCell id="Y6AdTtyQPDnQfDefX7vD-31" value="" style="endArrow=none;html=1;rounded=0;exitX=1;exitY=1;exitDx=0;exitDy=0;entryX=0;entryY=0;entryDx=0;entryDy=0;" edge="1" parent="1" source="Y6AdTtyQPDnQfDefX7vD-27" target="Y6AdTtyQPDnQfDefX7vD-29">
          <mxGeometry width="50" height="50" relative="1" as="geometry">
            <mxPoint x="660" y="540" as="sourcePoint" />
            <mxPoint x="710" y="490" as="targetPoint" />
          </mxGeometry>
        </mxCell>
        <mxCell id="Y6AdTtyQPDnQfDefX7vD-32" value="" style="endArrow=none;html=1;rounded=0;exitX=1;exitY=1;exitDx=0;exitDy=0;entryX=0;entryY=0;entryDx=0;entryDy=0;" edge="1" parent="1" source="Y6AdTtyQPDnQfDefX7vD-14" target="Y6AdTtyQPDnQfDefX7vD-27">
          <mxGeometry width="50" height="50" relative="1" as="geometry">
            <mxPoint x="515" y="480" as="sourcePoint" />
            <mxPoint x="827" y="680" as="targetPoint" />
          </mxGeometry>
        </mxCell>
        <mxCell id="Y6AdTtyQPDnQfDefX7vD-27" value="Asesora" style="rhombus;whiteSpace=wrap;html=1;" vertex="1" parent="1">
          <mxGeometry x="650" y="545" width="80" height="80" as="geometry" />
        </mxCell>
        <mxCell id="Y6AdTtyQPDnQfDefX7vD-33" value="" style="endArrow=none;html=1;rounded=0;exitX=1;exitY=0.5;exitDx=0;exitDy=0;entryX=0;entryY=0.5;entryDx=0;entryDy=0;" edge="1" parent="1" source="Y6AdTtyQPDnQfDefX7vD-26" target="Y6AdTtyQPDnQfDefX7vD-28">
          <mxGeometry width="50" height="50" relative="1" as="geometry">
            <mxPoint x="660" y="540" as="sourcePoint" />
            <mxPoint x="790" y="490" as="targetPoint" />
          </mxGeometry>
        </mxCell>
        <mxCell id="Y6AdTtyQPDnQfDefX7vD-34" value="" style="endArrow=none;html=1;rounded=0;exitX=1;exitY=0.5;exitDx=0;exitDy=0;entryX=0;entryY=0.5;entryDx=0;entryDy=0;" edge="1" parent="1" source="Y6AdTtyQPDnQfDefX7vD-14" target="Y6AdTtyQPDnQfDefX7vD-26">
          <mxGeometry width="50" height="50" relative="1" as="geometry">
            <mxPoint x="515" y="450" as="sourcePoint" />
            <mxPoint x="840" y="450" as="targetPoint" />
          </mxGeometry>
        </mxCell>
        <mxCell id="Y6AdTtyQPDnQfDefX7vD-26" value="Cubren" style="rhombus;whiteSpace=wrap;html=1;" vertex="1" parent="1">
          <mxGeometry x="650" y="410" width="80" height="80" as="geometry" />
        </mxCell>
        <mxCell id="Y6AdTtyQPDnQfDefX7vD-35" value="" style="endArrow=none;html=1;rounded=0;entryX=0.5;entryY=1;entryDx=0;entryDy=0;exitX=0.5;exitY=0;exitDx=0;exitDy=0;" edge="1" parent="1" source="Y6AdTtyQPDnQfDefX7vD-30" target="Y6AdTtyQPDnQfDefX7vD-28">
          <mxGeometry width="50" height="50" relative="1" as="geometry">
            <mxPoint x="660" y="540" as="sourcePoint" />
            <mxPoint x="710" y="490" as="targetPoint" />
          </mxGeometry>
        </mxCell>
        <mxCell id="Y6AdTtyQPDnQfDefX7vD-36" value="" style="endArrow=none;html=1;rounded=0;entryX=0.5;entryY=1;entryDx=0;entryDy=0;exitX=0.5;exitY=0;exitDx=0;exitDy=0;" edge="1" parent="1" source="Y6AdTtyQPDnQfDefX7vD-29" target="Y6AdTtyQPDnQfDefX7vD-30">
          <mxGeometry width="50" height="50" relative="1" as="geometry">
            <mxPoint x="890" y="680" as="sourcePoint" />
            <mxPoint x="890" y="480" as="targetPoint" />
          </mxGeometry>
        </mxCell>
        <mxCell id="Y6AdTtyQPDnQfDefX7vD-30" value="Dan soporte" style="rhombus;whiteSpace=wrap;html=1;" vertex="1" parent="1">
          <mxGeometry x="850" y="545" width="80" height="80" as="geometry" />
        </mxCell>
        <mxCell id="Y6AdTtyQPDnQfDefX7vD-37" value="#codigo" style="ellipse;whiteSpace=wrap;html=1;" vertex="1" parent="1">
          <mxGeometry x="760" y="280" width="110" height="60" as="geometry" />
        </mxCell>
        <mxCell id="Y6AdTtyQPDnQfDefX7vD-39" value="" style="endArrow=none;html=1;rounded=0;exitX=0;exitY=0;exitDx=0;exitDy=0;entryX=0.5;entryY=1;entryDx=0;entryDy=0;" edge="1" parent="1" source="Y6AdTtyQPDnQfDefX7vD-28" target="Y6AdTtyQPDnQfDefX7vD-37">
          <mxGeometry width="50" height="50" relative="1" as="geometry">
            <mxPoint x="660" y="340" as="sourcePoint" />
            <mxPoint x="710" y="290" as="targetPoint" />
          </mxGeometry>
        </mxCell>
        <mxCell id="Y6AdTtyQPDnQfDefX7vD-40" value="#id" style="ellipse;whiteSpace=wrap;html=1;" vertex="1" parent="1">
          <mxGeometry x="305" y="770" width="90" height="50" as="geometry" />
        </mxCell>
        <mxCell id="Y6AdTtyQPDnQfDefX7vD-41" value="" style="endArrow=none;html=1;rounded=0;exitX=0.668;exitY=0.025;exitDx=0;exitDy=0;exitPerimeter=0;entryX=0.25;entryY=1;entryDx=0;entryDy=0;" edge="1" parent="1" source="Y6AdTtyQPDnQfDefX7vD-40" target="Y6AdTtyQPDnQfDefX7vD-18">
          <mxGeometry width="50" height="50" relative="1" as="geometry">
            <mxPoint x="340" y="640" as="sourcePoint" />
            <mxPoint x="390" y="590" as="targetPoint" />
          </mxGeometry>
        </mxCell>
        <mxCell id="Y6AdTtyQPDnQfDefX7vD-42" value="ciudad" style="ellipse;whiteSpace=wrap;html=1;" vertex="1" parent="1">
          <mxGeometry x="70" y="545" width="120" height="80" as="geometry" />
        </mxCell>
        <mxCell id="Y6AdTtyQPDnQfDefX7vD-44" value="" style="endArrow=none;html=1;rounded=0;exitX=1;exitY=0.5;exitDx=0;exitDy=0;entryX=0;entryY=0.5;entryDx=0;entryDy=0;" edge="1" parent="1" source="Y6AdTtyQPDnQfDefX7vD-42" target="Y6AdTtyQPDnQfDefX7vD-17">
          <mxGeometry width="50" height="50" relative="1" as="geometry">
            <mxPoint x="310" y="610" as="sourcePoint" />
            <mxPoint x="360" y="560" as="targetPoint" />
          </mxGeometry>
        </mxCell>
        <mxCell id="Y6AdTtyQPDnQfDefX7vD-45" value="(0,N)" style="text;html=1;strokeColor=none;fillColor=none;align=center;verticalAlign=middle;whiteSpace=wrap;rounded=0;" vertex="1" parent="1">
          <mxGeometry x="340" y="230" width="60" height="30" as="geometry" />
        </mxCell>
        <mxCell id="Y6AdTtyQPDnQfDefX7vD-46" value="(1,N)" style="text;html=1;strokeColor=none;fillColor=none;align=center;verticalAlign=middle;whiteSpace=wrap;rounded=0;" vertex="1" parent="1">
          <mxGeometry x="353" y="170" width="60" height="30" as="geometry" />
        </mxCell>
        <mxCell id="Y6AdTtyQPDnQfDefX7vD-47" value="(0,N)" style="text;html=1;strokeColor=none;fillColor=none;align=center;verticalAlign=middle;whiteSpace=wrap;rounded=0;" vertex="1" parent="1">
          <mxGeometry x="505" y="220" width="60" height="30" as="geometry" />
        </mxCell>
        <mxCell id="Y6AdTtyQPDnQfDefX7vD-48" value="(1,1)" style="text;html=1;strokeColor=none;fillColor=none;align=center;verticalAlign=middle;whiteSpace=wrap;rounded=0;" vertex="1" parent="1">
          <mxGeometry x="480" y="170" width="60" height="30" as="geometry" />
        </mxCell>
        <mxCell id="Y6AdTtyQPDnQfDefX7vD-49" value="(0,N)" style="text;html=1;strokeColor=none;fillColor=none;align=center;verticalAlign=middle;whiteSpace=wrap;rounded=0;" vertex="1" parent="1">
          <mxGeometry x="445" y="260" width="60" height="30" as="geometry" />
        </mxCell>
        <mxCell id="Y6AdTtyQPDnQfDefX7vD-50" value="(1,1)" style="text;html=1;strokeColor=none;fillColor=none;align=center;verticalAlign=middle;whiteSpace=wrap;rounded=0;" vertex="1" parent="1">
          <mxGeometry x="440" y="390" width="60" height="30" as="geometry" />
        </mxCell>
        <mxCell id="Y6AdTtyQPDnQfDefX7vD-53" value="(0,N)" style="text;html=1;strokeColor=none;fillColor=none;align=center;verticalAlign=middle;whiteSpace=wrap;rounded=0;" vertex="1" parent="1">
          <mxGeometry x="517.5" y="450" width="35" height="20" as="geometry" />
        </mxCell>
        <mxCell id="Y6AdTtyQPDnQfDefX7vD-54" value="(0,N)" style="text;html=1;strokeColor=none;fillColor=none;align=center;verticalAlign=middle;whiteSpace=wrap;rounded=0;" vertex="1" parent="1">
          <mxGeometry x="455" y="480" width="35" height="20" as="geometry" />
        </mxCell>
        <mxCell id="Y6AdTtyQPDnQfDefX7vD-55" value="(0,N)" style="text;html=1;strokeColor=none;fillColor=none;align=center;verticalAlign=middle;whiteSpace=wrap;rounded=0;" vertex="1" parent="1">
          <mxGeometry x="360" y="470" width="35" height="20" as="geometry" />
        </mxCell>
        <mxCell id="Y6AdTtyQPDnQfDefX7vD-56" value="(0,N)" style="text;html=1;strokeColor=none;fillColor=none;align=center;verticalAlign=middle;whiteSpace=wrap;rounded=0;" vertex="1" parent="1">
          <mxGeometry x="452.5" y="660" width="35" height="20" as="geometry" />
        </mxCell>
        <mxCell id="Y6AdTtyQPDnQfDefX7vD-57" value="(0,N)" style="text;html=1;strokeColor=none;fillColor=none;align=center;verticalAlign=middle;whiteSpace=wrap;rounded=0;" vertex="1" parent="1">
          <mxGeometry x="375" y="940" width="35" height="20" as="geometry" />
        </mxCell>
        <mxCell id="Y6AdTtyQPDnQfDefX7vD-58" value="(1,1)" style="text;html=1;strokeColor=none;fillColor=none;align=center;verticalAlign=middle;whiteSpace=wrap;rounded=0;" vertex="1" parent="1">
          <mxGeometry x="362.5" y="690" width="26" height="10" as="geometry" />
        </mxCell>
        <mxCell id="Y6AdTtyQPDnQfDefX7vD-59" value="(0,N)" style="text;html=1;strokeColor=none;fillColor=none;align=center;verticalAlign=middle;whiteSpace=wrap;rounded=0;" vertex="1" parent="1">
          <mxGeometry x="795" y="450" width="35" height="20" as="geometry" />
        </mxCell>
        <mxCell id="Y6AdTtyQPDnQfDefX7vD-60" value="(1,N)" style="text;html=1;strokeColor=none;fillColor=none;align=center;verticalAlign=middle;whiteSpace=wrap;rounded=0;" vertex="1" parent="1">
          <mxGeometry x="890" y="490" width="40" height="10" as="geometry" />
        </mxCell>
        <mxCell id="Y6AdTtyQPDnQfDefX7vD-61" value="(0,N)" style="text;html=1;strokeColor=none;fillColor=none;align=center;verticalAlign=middle;whiteSpace=wrap;rounded=0;" vertex="1" parent="1">
          <mxGeometry x="895" y="660" width="35" height="20" as="geometry" />
        </mxCell>
        <mxCell id="Y6AdTtyQPDnQfDefX7vD-62" value="(0,N)" style="text;html=1;strokeColor=none;fillColor=none;align=center;verticalAlign=middle;whiteSpace=wrap;rounded=0;" vertex="1" parent="1">
          <mxGeometry x="815" y="650" width="35" height="20" as="geometry" />
        </mxCell>
        <mxCell id="Y6AdTtyQPDnQfDefX7vD-63" value="(1,N)" style="text;html=1;strokeColor=none;fillColor=none;align=center;verticalAlign=middle;whiteSpace=wrap;rounded=0;" vertex="1" parent="1">
          <mxGeometry x="510" y="500" width="40" height="10" as="geometry" />
        </mxCell>
        <mxCell id="Y6AdTtyQPDnQfDefX7vD-64" value="fecha" style="ellipse;whiteSpace=wrap;html=1;" vertex="1" parent="1">
          <mxGeometry x="660" y="50" width="55" height="40" as="geometry" />
        </mxCell>
        <mxCell id="Y6AdTtyQPDnQfDefX7vD-65" value="" style="endArrow=none;html=1;rounded=0;exitX=1;exitY=0;exitDx=0;exitDy=0;entryX=0;entryY=1;entryDx=0;entryDy=0;" edge="1" parent="1" source="Y6AdTtyQPDnQfDefX7vD-2" target="Y6AdTtyQPDnQfDefX7vD-64">
          <mxGeometry width="50" height="50" relative="1" as="geometry">
            <mxPoint x="560" y="350" as="sourcePoint" />
            <mxPoint x="610" y="300" as="targetPoint" />
          </mxGeometry>
        </mxCell>
        <mxCell id="Y6AdTtyQPDnQfDefX7vD-67" value="direccion" style="ellipse;whiteSpace=wrap;html=1;" vertex="1" parent="1">
          <mxGeometry x="550" y="260" width="55" height="40" as="geometry" />
        </mxCell>
        <mxCell id="Y6AdTtyQPDnQfDefX7vD-68" value="nombre" style="ellipse;whiteSpace=wrap;html=1;" vertex="1" parent="1">
          <mxGeometry x="307.5" y="280" width="55" height="40" as="geometry" />
        </mxCell>
        <mxCell id="Y6AdTtyQPDnQfDefX7vD-69" value="" style="endArrow=none;html=1;rounded=0;exitX=1;exitY=0;exitDx=0;exitDy=0;entryX=0.117;entryY=1;entryDx=0;entryDy=0;entryPerimeter=0;" edge="1" parent="1" source="Y6AdTtyQPDnQfDefX7vD-68" target="Y6AdTtyQPDnQfDefX7vD-1">
          <mxGeometry width="50" height="50" relative="1" as="geometry">
            <mxPoint x="560" y="350" as="sourcePoint" />
            <mxPoint x="610" y="300" as="targetPoint" />
          </mxGeometry>
        </mxCell>
        <mxCell id="Y6AdTtyQPDnQfDefX7vD-70" value="" style="endArrow=none;html=1;rounded=0;exitX=0;exitY=0.5;exitDx=0;exitDy=0;entryX=1;entryY=1;entryDx=0;entryDy=0;" edge="1" parent="1" source="Y6AdTtyQPDnQfDefX7vD-67" target="Y6AdTtyQPDnQfDefX7vD-1">
          <mxGeometry width="50" height="50" relative="1" as="geometry">
            <mxPoint x="370" y="280" as="sourcePoint" />
            <mxPoint x="420" y="230" as="targetPoint" />
          </mxGeometry>
        </mxCell>
        <mxCell id="Y6AdTtyQPDnQfDefX7vD-72" value="nombre" style="ellipse;whiteSpace=wrap;html=1;" vertex="1" parent="1">
          <mxGeometry x="900" y="290" width="110" height="60" as="geometry" />
        </mxCell>
        <mxCell id="Y6AdTtyQPDnQfDefX7vD-73" value="" style="endArrow=none;html=1;rounded=0;exitX=1;exitY=0;exitDx=0;exitDy=0;entryX=0;entryY=1;entryDx=0;entryDy=0;" edge="1" parent="1" source="Y6AdTtyQPDnQfDefX7vD-28" target="Y6AdTtyQPDnQfDefX7vD-72">
          <mxGeometry width="50" height="50" relative="1" as="geometry">
            <mxPoint x="760" y="450" as="sourcePoint" />
            <mxPoint x="810" y="400" as="targetPoint" />
          </mxGeometry>
        </mxCell>
        <mxCell id="Y6AdTtyQPDnQfDefX7vD-74" value="discripcion" style="ellipse;whiteSpace=wrap;html=1;" vertex="1" parent="1">
          <mxGeometry x="990" y="380" width="110" height="60" as="geometry" />
        </mxCell>
        <mxCell id="Y6AdTtyQPDnQfDefX7vD-75" value="" style="endArrow=none;html=1;rounded=0;exitX=1;exitY=0.5;exitDx=0;exitDy=0;entryX=0;entryY=1;entryDx=0;entryDy=0;" edge="1" parent="1" source="Y6AdTtyQPDnQfDefX7vD-28" target="Y6AdTtyQPDnQfDefX7vD-74">
          <mxGeometry width="50" height="50" relative="1" as="geometry">
            <mxPoint x="760" y="450" as="sourcePoint" />
            <mxPoint x="810" y="400" as="targetPoint" />
          </mxGeometry>
        </mxCell>
        <mxCell id="Y6AdTtyQPDnQfDefX7vD-76" value="fecha entrada" style="ellipse;whiteSpace=wrap;html=1;" vertex="1" parent="1">
          <mxGeometry x="494" y="350" width="60" height="30" as="geometry" />
        </mxCell>
        <mxCell id="Y6AdTtyQPDnQfDefX7vD-77" value="" style="endArrow=none;html=1;rounded=0;exitX=0.75;exitY=1;exitDx=0;exitDy=0;entryX=0;entryY=1;entryDx=0;entryDy=0;" edge="1" parent="1" source="Y6AdTtyQPDnQfDefX7vD-50" target="Y6AdTtyQPDnQfDefX7vD-76">
          <mxGeometry width="50" height="50" relative="1" as="geometry">
            <mxPoint x="555" y="415" as="sourcePoint" />
            <mxPoint x="605" y="365" as="targetPoint" />
          </mxGeometry>
        </mxCell>
        <mxCell id="Y6AdTtyQPDnQfDefX7vD-78" value="facturacion" style="ellipse;whiteSpace=wrap;html=1;" vertex="1" parent="1">
          <mxGeometry x="565" y="375" width="75" height="30" as="geometry" />
        </mxCell>
        <mxCell id="Y6AdTtyQPDnQfDefX7vD-79" value="" style="endArrow=none;html=1;rounded=0;exitX=1;exitY=0;exitDx=0;exitDy=0;entryX=0;entryY=0.5;entryDx=0;entryDy=0;" edge="1" parent="1" source="Y6AdTtyQPDnQfDefX7vD-14" target="Y6AdTtyQPDnQfDefX7vD-78">
          <mxGeometry width="50" height="50" relative="1" as="geometry">
            <mxPoint x="530" y="450" as="sourcePoint" />
            <mxPoint x="580" y="400" as="targetPoint" />
          </mxGeometry>
        </mxCell>
        <mxCell id="Y6AdTtyQPDnQfDefX7vD-81" value="numero vendedores" style="ellipse;whiteSpace=wrap;html=1;" vertex="1" parent="1">
          <mxGeometry x="318.5" y="350" width="70" height="40" as="geometry" />
        </mxCell>
        <mxCell id="Y6AdTtyQPDnQfDefX7vD-82" value="" style="endArrow=none;html=1;rounded=0;exitX=0;exitY=0;exitDx=0;exitDy=0;entryX=1;entryY=1;entryDx=0;entryDy=0;" edge="1" parent="1" source="Y6AdTtyQPDnQfDefX7vD-14" target="Y6AdTtyQPDnQfDefX7vD-81">
          <mxGeometry width="50" height="50" relative="1" as="geometry">
            <mxPoint x="440" y="410" as="sourcePoint" />
            <mxPoint x="490" y="360" as="targetPoint" />
          </mxGeometry>
        </mxCell>
        <mxCell id="Y6AdTtyQPDnQfDefX7vD-84" value="nombre" style="ellipse;whiteSpace=wrap;html=1;" vertex="1" parent="1">
          <mxGeometry x="440" y="770" width="90" height="50" as="geometry" />
        </mxCell>
        <mxCell id="Y6AdTtyQPDnQfDefX7vD-85" value="PIB" style="ellipse;whiteSpace=wrap;html=1;" vertex="1" parent="1">
          <mxGeometry x="554" y="740" width="90" height="50" as="geometry" />
        </mxCell>
        <mxCell id="Y6AdTtyQPDnQfDefX7vD-86" value="" style="endArrow=none;html=1;rounded=0;exitX=0.75;exitY=1;exitDx=0;exitDy=0;entryX=0.5;entryY=0;entryDx=0;entryDy=0;" edge="1" parent="1" source="Y6AdTtyQPDnQfDefX7vD-18" target="Y6AdTtyQPDnQfDefX7vD-84">
          <mxGeometry width="50" height="50" relative="1" as="geometry">
            <mxPoint x="500" y="530" as="sourcePoint" />
            <mxPoint x="550" y="480" as="targetPoint" />
          </mxGeometry>
        </mxCell>
        <mxCell id="Y6AdTtyQPDnQfDefX7vD-87" value="" style="endArrow=none;html=1;rounded=0;exitX=1;exitY=1;exitDx=0;exitDy=0;entryX=0;entryY=0.5;entryDx=0;entryDy=0;" edge="1" parent="1" source="Y6AdTtyQPDnQfDefX7vD-18" target="Y6AdTtyQPDnQfDefX7vD-85">
          <mxGeometry width="50" height="50" relative="1" as="geometry">
            <mxPoint x="490" y="570" as="sourcePoint" />
            <mxPoint x="540" y="520" as="targetPoint" />
          </mxGeometry>
        </mxCell>
        <mxCell id="Y6AdTtyQPDnQfDefX7vD-88" value="numero de habitantes" style="ellipse;whiteSpace=wrap;html=1;" vertex="1" parent="1">
          <mxGeometry x="549" y="680" width="100" height="40" as="geometry" />
        </mxCell>
        <mxCell id="Y6AdTtyQPDnQfDefX7vD-89" value="capital" style="ellipse;whiteSpace=wrap;html=1;" vertex="1" parent="1">
          <mxGeometry x="510" y="620" width="100" height="40" as="geometry" />
        </mxCell>
        <mxCell id="Y6AdTtyQPDnQfDefX7vD-90" value="" style="endArrow=none;html=1;rounded=0;exitX=1;exitY=0;exitDx=0;exitDy=0;entryX=0.5;entryY=1;entryDx=0;entryDy=0;" edge="1" parent="1" source="Y6AdTtyQPDnQfDefX7vD-18" target="Y6AdTtyQPDnQfDefX7vD-89">
          <mxGeometry width="50" height="50" relative="1" as="geometry">
            <mxPoint x="490" y="570" as="sourcePoint" />
            <mxPoint x="540" y="520" as="targetPoint" />
          </mxGeometry>
        </mxCell>
        <mxCell id="Y6AdTtyQPDnQfDefX7vD-91" value="" style="endArrow=none;html=1;rounded=0;exitX=1;exitY=0.5;exitDx=0;exitDy=0;entryX=0;entryY=0.5;entryDx=0;entryDy=0;" edge="1" parent="1" source="Y6AdTtyQPDnQfDefX7vD-18" target="Y6AdTtyQPDnQfDefX7vD-88">
          <mxGeometry width="50" height="50" relative="1" as="geometry">
            <mxPoint x="490" y="570" as="sourcePoint" />
            <mxPoint x="540" y="520" as="targetPoint" />
          </mxGeometry>
        </mxCell>
        <mxCell id="Y6AdTtyQPDnQfDefX7vD-92" value="#codigo" style="ellipse;whiteSpace=wrap;html=1;" vertex="1" parent="1">
          <mxGeometry x="757.5" y="760" width="110" height="60" as="geometry" />
        </mxCell>
        <mxCell id="Y6AdTtyQPDnQfDefX7vD-93" value="nombtr" style="ellipse;whiteSpace=wrap;html=1;" vertex="1" parent="1">
          <mxGeometry x="900" y="770" width="110" height="60" as="geometry" />
        </mxCell>
        <mxCell id="Y6AdTtyQPDnQfDefX7vD-94" value="direccion" style="ellipse;whiteSpace=wrap;html=1;" vertex="1" parent="1">
          <mxGeometry x="1000" y="700" width="90" height="50" as="geometry" />
        </mxCell>
        <mxCell id="Y6AdTtyQPDnQfDefX7vD-95" value="titulacion" style="ellipse;whiteSpace=wrap;html=1;" vertex="1" parent="1">
          <mxGeometry x="980" y="625" width="90" height="50" as="geometry" />
        </mxCell>
        <mxCell id="Y6AdTtyQPDnQfDefX7vD-96" value="" style="endArrow=none;html=1;rounded=0;exitX=1;exitY=0;exitDx=0;exitDy=0;entryX=0.041;entryY=0.653;entryDx=0;entryDy=0;entryPerimeter=0;" edge="1" parent="1" source="Y6AdTtyQPDnQfDefX7vD-29" target="Y6AdTtyQPDnQfDefX7vD-95">
          <mxGeometry width="50" height="50" relative="1" as="geometry">
            <mxPoint x="780" y="590" as="sourcePoint" />
            <mxPoint x="830" y="540" as="targetPoint" />
          </mxGeometry>
        </mxCell>
        <mxCell id="Y6AdTtyQPDnQfDefX7vD-97" value="" style="endArrow=none;html=1;rounded=0;exitX=1;exitY=0.5;exitDx=0;exitDy=0;entryX=0;entryY=0.5;entryDx=0;entryDy=0;" edge="1" parent="1" source="Y6AdTtyQPDnQfDefX7vD-29" target="Y6AdTtyQPDnQfDefX7vD-94">
          <mxGeometry width="50" height="50" relative="1" as="geometry">
            <mxPoint x="780" y="590" as="sourcePoint" />
            <mxPoint x="830" y="540" as="targetPoint" />
          </mxGeometry>
        </mxCell>
        <mxCell id="Y6AdTtyQPDnQfDefX7vD-98" value="" style="endArrow=none;html=1;rounded=0;entryX=0.25;entryY=1;entryDx=0;entryDy=0;" edge="1" parent="1" source="Y6AdTtyQPDnQfDefX7vD-92" target="Y6AdTtyQPDnQfDefX7vD-29">
          <mxGeometry width="50" height="50" relative="1" as="geometry">
            <mxPoint x="780" y="590" as="sourcePoint" />
            <mxPoint x="830" y="540" as="targetPoint" />
          </mxGeometry>
        </mxCell>
        <mxCell id="Y6AdTtyQPDnQfDefX7vD-99" value="" style="endArrow=none;html=1;rounded=0;exitX=0.5;exitY=0;exitDx=0;exitDy=0;entryX=0.75;entryY=1;entryDx=0;entryDy=0;" edge="1" parent="1" source="Y6AdTtyQPDnQfDefX7vD-93" target="Y6AdTtyQPDnQfDefX7vD-29">
          <mxGeometry width="50" height="50" relative="1" as="geometry">
            <mxPoint x="780" y="590" as="sourcePoint" />
            <mxPoint x="830" y="540" as="targetPoint" />
          </mxGeometry>
        </mxCell>
      </root>
    </mxGraphModel>
  </diagram>
</mxfile>
